<svg xmlns="http://www.w3.org/2000/svg" viewBox="0 0 80 70" width="80" height="70">
  <rect width="80" height="70" fill="none" /> <!-- Transparent background -->

  <!-- Group to rotate all elements together -->
  <g transform="rotate(0 40 35)">
    
    <!-- Dragon Tail (Much Smaller, Tapered) -->
    <path d="M 40 55 
             C 45 52, 45 45, 40 42 
             L 40 42 
             C 35 45, 35 52, 40 55 Z" 
          fill="#7B1FA2" stroke="#4A148C" stroke-width="1.5" />
    <!-- Tail Tip (Simple Point) -->
    <path d="M 40 57 L 38 54 L 42 54 Z" fill="#4A148C"/> 

    <!-- Dragon Body (Much Thinner) -->
    <path d="M 35 45 
             C 32 35, 32 25, 36 15 
             L 44 15 
             C 48 25, 48 35, 45 45 
             Q 40 50, 35 45 Z" 
          fill="#7B1FA2" stroke="#4A148C" stroke-width="2" />
    
    <!-- Underbelly Plating (Adjusted to thinner body) -->
    <path d="M 37 43 
             C 36 35, 36 28, 38 20 
             L 42 20 
             C 44 28, 44 35, 43 43 
             Q 40 47, 37 43 Z" 
          fill="#9C27B0" stroke="#4A148C" stroke-width="0.5" />

    <!-- Dragon Wings (Longer, Reshaped) -->
    <!-- Left Wing -->
    <path d="M 36 28 
             L 5 15 
             C -5 30, 10 45, 25 40 
             L 35 35 Z" 
          fill="#9C27B0" stroke="#4A148C" stroke-width="1.5" />
    <path d="M 36 28 L 15 20" stroke="#4A148C" stroke-width="1.5" fill="none" /> <!-- Wing Arm -->
    <path d="M 15 20 C 10 28, 10 38, 15 42" stroke="#4A148C" stroke-width="1" fill="none" />   <!-- Wing Finger 1 -->
    <path d="M 15 20 C 20 30, 20 40, 25 40" stroke="#4A148C" stroke-width="1" fill="none" />   <!-- Wing Finger 2 -->

    <!-- Right Wing -->
     <path d="M 44 28 
             L 75 15 
             C 85 30, 70 45, 55 40 
             L 45 35 Z" 
          fill="#9C27B0" stroke="#4A148C" stroke-width="1.5" />
    <path d="M 44 28 L 65 20" stroke="#4A148C" stroke-width="1.5" fill="none" /> <!-- Wing Arm -->
    <path d="M 65 20 C 70 28, 70 38, 65 42" stroke="#4A148C" stroke-width="1" fill="none" />   <!-- Wing Finger 1 -->
    <path d="M 65 20 C 60 30, 60 40, 55 40" stroke="#4A148C" stroke-width="1" fill="none" />   <!-- Wing Finger 2 -->

    <!-- Hints of Claws/Legs (Adjusted for thinner body) -->
    <!-- ... existing code ... -->

    <!-- Dragon Head (Slightly Larger, Refined Snout) -->
    <path d="M 35 20 
             Q 40 5, 45 20 
             C 49 28, 31 28, 35 20 Z" 
          fill="#7B1FA2" stroke="#4A148C" stroke-width="1.5" />
    <!-- Nostrils -->
    <circle cx="38" cy="18" r="0.5" fill="#4A148C" />
    <circle cx="42" cy="18" r="0.5" fill="#4A148C" />
    
    <!-- Dragon Eyes -->
    <circle cx="37" cy="15" r="1.5" fill="#FFEB3B" />
    <circle cx="43" cy="15" r="1.5" fill="#FFEB3B" />
    
    <!-- Dragon Horns (More angled) -->
    <!-- ... existing code ... -->
    
  </g>
</svg> 