<svg xmlns="http://www.w3.org/2000/svg" viewBox="0 0 40 40" width="40" height="40">
  <rect width="40" height="40" fill="none" /> <!-- Transparent background -->

  <!-- Group for rotation -->
  <g transform="rotate(0 20 20)">

    <!-- Fairy Wings (Upper Pair - larger, translucent) -->
    <path d="M 20 18 
             L 5 5 
             C -5 15, 5 30, 15 25 Z"
          fill="#ADD8E6" stroke="#87CEEB" stroke-width="1" opacity="0.8" />
    <path d="M 20 18 
             L 35 5 
             C 45 15, 35 30, 25 25 Z"
          fill="#ADD8E6" stroke="#87CEEB" stroke-width="1" opacity="0.8" />
          
    <!-- Fairy Wings (Lower Pair - smaller, under upper) -->
     <path d="M 20 22 
             L 8 28 
             C 5 35, 15 38, 20 30 Z"
          fill="#B0E0E6" stroke="#87CEEB" stroke-width="0.8" opacity="0.7" />
    <path d="M 20 22 
             L 32 28 
             C 35 35, 25 38, 20 30 Z"
          fill="#B0E0E6" stroke="#87CEEB" stroke-width="0.8" opacity="0.7" />

    <!-- Fairy Body (Small, simple) -->
    <circle cx="20" cy="20" r="5" fill="#FFDEAD" stroke="#DEB887" stroke-width="1" />
    
    <!-- Fairy Head (Slightly overlapping body) -->
    <circle cx="20" cy="16" r="4" fill="#FFDEAD" stroke="#DEB887" stroke-width="1" />

    <!-- Hair (Simple arc) -->
    <path d="M 17 13 A 3 3 0 0 1 23 13" fill="#FFD700" stroke="#DAA520" stroke-width="0.5" />
    
    <!-- Eyes (Tiny dots) -->
    <circle cx="19" cy="16" r="0.5" fill="#663300" />
    <circle cx="21" cy="16" r="0.5" fill="#663300" />
    
  </g>
</svg> 